HIERARCHY
ROOT Hips
{
	OFFSET 0.000000 0.000000 0.000000
	CHANNELS 6 Xposition Yposition Zposition Xrotation Yrotation Zrotation
	JOINT LeftUpLeg_virtual
	{
		OFFSET 0.000000 0.000000 0.000000
		CHANNELS 3 Xrotation Yrotation Zrotation
		JOINT LeftUpLeg
		{
			OFFSET 15.427100 -6.655098 0.678600
			CHANNELS 3 Xrotation Yrotation Zrotation
			JOINT LeftLeg
			{
				OFFSET 4.081073 -39.591068 13.024000
				CHANNELS 3 Xrotation Yrotation Zrotation
				JOINT LeftFoot
				{
					OFFSET -4.081074 -37.707932 -15.979700
					CHANNELS 3 Xrotation Yrotation Zrotation
					JOINT LeftToeBase
					{
						OFFSET 5.346399 -15.068900 20.645000
						CHANNELS 3 Xrotation Yrotation Zrotation
						JOINT LeftToe_End
						{
							OFFSET 2.754700 0.931300 11.300900
							CHANNELS 3 Xrotation Yrotation Zrotation
							End Site
							{
								OFFSET 0 0 0
							}
						}
					}
				}
			}
		}
	}
	JOINT RightUpLeg_virtual
	{
		OFFSET 0.000000 0.000000 0.000000
		CHANNELS 3 Xrotation Yrotation Zrotation
		JOINT RightUpLeg
		{
			OFFSET -15.569500 -6.655098 0.678600
			CHANNELS 3 Xrotation Yrotation Zrotation
			JOINT RightLeg
			{
				OFFSET -4.081825 -39.591045 13.023800
				CHANNELS 3 Xrotation Yrotation Zrotation
				JOINT RightFoot
				{
					OFFSET 4.081824 -37.707954 -15.979600
					CHANNELS 3 Xrotation Yrotation Zrotation
					JOINT RightToeBase
					{
						OFFSET -5.346400 -15.068900 20.645000
						CHANNELS 3 Xrotation Yrotation Zrotation
						JOINT RightToe_End
						{
							OFFSET -2.754700 0.931300 11.300900
							CHANNELS 3 Xrotation Yrotation Zrotation
							End Site
							{
								OFFSET 0 0 0
							}
						}
					}
				}
			}
		}
	}
	JOINT Spine_virtual
	{
		OFFSET 0.000000 0.000000 0.000000
		CHANNELS 3 Xrotation Yrotation Zrotation
		JOINT Spine
		{
			OFFSET -0.279200 12.230698 -2.892100
			CHANNELS 3 Xrotation Yrotation Zrotation
			JOINT Spine1
			{
				OFFSET -0.232667 10.192268 -1.242267
				CHANNELS 3 Xrotation Yrotation Zrotation
				JOINT Spine1_split
				{
					OFFSET -0.232667 10.192268 -1.242267
					CHANNELS 3 Xrotation Yrotation Zrotation
					JOINT Spine2
					{
						OFFSET -0.232667 10.192268 -1.242267
						CHANNELS 3 Xrotation Yrotation Zrotation
						JOINT Neck_virtual
						{
							OFFSET 0.000000 0.000000 0.000000
							CHANNELS 3 Xrotation Yrotation Zrotation
							JOINT Neck
							{
								OFFSET -0.418800 17.814194 8.416900
								CHANNELS 3 Xrotation Yrotation Zrotation
								JOINT Head
								{
									OFFSET 0.000000 7.031097 3.806800
									CHANNELS 3 Xrotation Yrotation Zrotation
									JOINT HeadTop_End
									{
										OFFSET 0.000000 24.646606 12.978600
										CHANNELS 3 Xrotation Yrotation Zrotation
										End Site
										{
											OFFSET 0 0 0
										}
									}
								}
							}
						}
						JOINT LeftShoulder_virtual
						{
							OFFSET 0.000000 0.000000 0.000000
							CHANNELS 3 Xrotation Yrotation Zrotation
							JOINT LeftShoulder
							{
								OFFSET 8.476499 7.247704 -3.868750
								CHANNELS 3 Xrotation Yrotation Zrotation
								JOINT LeftShoulder_split
								{
									OFFSET 8.476499 7.247704 -3.868750
									CHANNELS 3 Xrotation Yrotation Zrotation
									JOINT LeftArm
									{
										OFFSET 9.308998 -2.777710 0.208600
										CHANNELS 3 Xrotation Yrotation Zrotation
										JOINT LeftForeArm
										{
											OFFSET 29.972298 0.000000 0.000000
											CHANNELS 3 Xrotation Yrotation Zrotation
											JOINT LeftHand
											{
												OFFSET 26.026505 0.000000 0.000000
												CHANNELS 3 Xrotation Yrotation Zrotation
												End Site
												{
													OFFSET 0 0 0
												}
											}
										}
									}
								}
							}
						}
						JOINT RightShoulder_virtual
						{
							OFFSET 0.000000 0.000000 0.000000
							CHANNELS 3 Xrotation Yrotation Zrotation
							JOINT RightShoulder
							{
								OFFSET -7.570500 7.247704 -3.868750
								CHANNELS 3 Xrotation Yrotation Zrotation
								JOINT RightShoulder_split
								{
									OFFSET -7.570500 7.247704 -3.868750
									CHANNELS 3 Xrotation Yrotation Zrotation
									JOINT RightArm
									{
										OFFSET -9.308998 -2.777710 0.208500
										CHANNELS 3 Xrotation Yrotation Zrotation
										JOINT RightForeArm
										{
											OFFSET -29.972300 0.000000 0.000000
											CHANNELS 3 Xrotation Yrotation Zrotation
											JOINT RightHand
											{
												OFFSET -26.026505 0.000000 0.000000
												CHANNELS 3 Xrotation Yrotation Zrotation
												End Site
												{
													OFFSET 0 0 0
												}
											}
										}
									}
								}
							}
						}
					}
				}
			}
		}
	}
}
MOTION
Frames: 11
Frame Time: 0.03333333
-0.022916 107.894470 3.902065 0.000000 0.000000 0.000000 -87.490284 -6.637930 -1.050403 1.484470 22.307608 13.694929 -2.730383 0.801033 3.624834 16.445851 27.873841 -20.772938 -3.426552 -0.213919 0.688974 0.000000 0.000000 0.000000 -89.838305 -3.543418 0.624603 -0.481087 -23.608137 -18.086408 0.394587 -2.217361 -4.085664 27.345752 -31.205987 30.143025 -10.821966 0.662250 -1.847116 0.000000 0.000000 0.000000 -87.317931 -6.985472 -2.751194 0.923021 -0.345869 -0.137775 -1.148404 0.412282 -0.270560 0.697493 0.821046 -0.366479 0.000000 0.000000 0.000000 -1.268840 0.499660 -0.299317 -5.318981 4.253707 -8.683488 3.483887 8.045307 -11.264580 0.000000 0.000000 0.000000 -0.303484 0.539870 -0.099277 0.371356 -6.386915 -0.713516 -0.419217 1.608202 -3.001485 45.194054 -42.134648 -31.457345 5.210426 -86.344888 4.464378 0.000000 0.000000 0.000000 -0.170872 0.798733 -0.547745 0.377338 0.747509 2.647542 7.615367 7.777382 -0.864933 -4.754364 1.107480 81.046273 -179.253165 54.512406 -179.877840 0.000000 0.000000 0.000000 
0.002907 107.898483 3.913212 0.000000 0.000000 0.000000 -87.497606 -6.627177 -1.036641 1.480994 22.284052 13.695218 -2.739848 0.784348 3.605867 16.439780 27.863449 -20.757971 -3.424578 -0.215366 0.692177 0.000000 0.000000 0.000000 -89.833120 -3.537699 0.635318 -0.491728 -23.606910 -18.102588 0.383022 -2.215435 -4.091558 27.355130 -31.202961 30.144955 -10.837337 0.657048 -1.843647 0.000000 0.000000 0.000000 -87.315199 -6.971312 -2.751277 0.929055 -0.342277 -0.121519 -1.144981 0.414425 -0.268233 0.717002 0.807059 -0.351087 0.000000 0.000000 0.000000 -1.273204 0.505143 -0.297914 -5.264505 4.313011 -8.725428 3.564398 8.150512 -11.261410 0.000000 0.000000 0.000000 -0.296817 0.540697 -0.109985 0.370856 -6.395752 -0.722322 -0.400360 1.663552 -2.965058 45.171917 -42.148493 -31.471159 5.238850 -86.345530 4.493468 0.000000 0.000000 0.000000 -0.157190 0.812023 -0.537667 0.388210 0.748684 2.656467 7.610251 7.762561 -0.901401 -4.718383 1.158473 80.995341 -179.280267 54.525349 -179.843320 0.000000 0.000000 0.000000 
0.028885 107.904221 3.922478 0.000000 0.000000 0.000000 -87.501588 -6.618961 -1.018659 1.480906 22.261610 13.686587 -2.752644 0.758521 3.590303 16.430384 27.850723 -20.737839 -3.414019 -0.218209 0.690112 0.000000 0.000000 0.000000 -89.826017 -3.535785 0.648038 -0.511000 -23.617780 -18.126368 0.377736 -2.208417 -4.104165 27.344159 -31.208213 30.135327 -10.866881 0.653176 -1.838198 0.000000 0.000000 0.000000 -87.312712 -6.970000 -2.759044 0.938045 -0.344469 -0.094330 -1.144181 0.415886 -0.263817 0.727109 0.790035 -0.321947 0.000000 0.000000 0.000000 -1.279853 0.509409 -0.295850 -5.276619 4.352844 -8.714289 3.930617 8.272688 -11.445309 0.000000 0.000000 0.000000 -0.290816 0.537265 -0.117482 0.365548 -6.391370 -0.743747 -0.368299 1.722479 -2.904786 45.125311 -42.152123 -31.528594 5.123845 -86.345585 4.382593 0.000000 0.000000 0.000000 -0.145322 0.822220 -0.527006 0.400972 0.742481 2.693501 7.592290 7.751931 -0.932336 -4.708402 1.269750 80.907832 -179.301605 54.576545 -179.803091 0.000000 0.000000 0.000000 
0.053867 107.910202 3.924797 0.000000 0.000000 0.000000 -87.501437 -6.615256 -0.999642 1.480695 22.240254 13.672772 -2.762445 0.722172 3.580137 16.416331 27.834744 -20.719324 -3.398362 -0.221937 0.683656 0.000000 0.000000 0.000000 -89.816632 -3.535026 0.663570 -0.541570 -23.640960 -18.155088 0.381754 -2.194032 -4.120333 27.321470 -31.215136 30.121343 -10.913077 0.650549 -1.830582 0.000000 0.000000 0.000000 -87.312432 -6.980192 -2.775058 0.947436 -0.352721 -0.060615 -1.147153 0.416492 -0.257861 0.725709 0.770574 -0.293737 0.000000 0.000000 0.000000 -1.290281 0.513108 -0.291612 -5.351617 4.373937 -8.665067 4.568241 8.399964 -11.808231 0.000000 0.000000 0.000000 -0.284790 0.529781 -0.121825 0.357751 -6.379165 -0.783546 -0.327466 1.774270 -2.821358 45.064693 -42.146430 -31.607742 4.860403 -86.325873 4.128621 0.000000 0.000000 0.000000 -0.135662 0.828141 -0.517573 0.415514 0.721542 2.747873 7.568008 7.755665 -0.960161 -4.716932 1.421433 80.798672 -179.306509 54.625193 -179.771030 0.000000 0.000000 0.000000 
0.075282 107.915245 3.920506 0.000000 0.000000 0.000000 -87.502489 -6.619348 -0.984284 1.477105 22.221908 13.656991 -2.765605 0.674049 3.576034 16.399860 27.812131 -20.710262 -3.381835 -0.226108 0.674019 0.000000 0.000000 0.000000 -89.804509 -3.529120 0.686823 -0.576464 -23.676881 -18.183097 0.390559 -2.168473 -4.138934 27.292620 -31.218643 30.107006 -10.987339 0.649532 -1.821840 0.000000 0.000000 0.000000 -87.317828 -7.002446 -2.799682 0.954774 -0.367059 -0.025418 -1.152131 0.416544 -0.251645 0.728715 0.756094 -0.271498 0.000000 0.000000 0.000000 -1.302481 0.515877 -0.285333 -5.478836 4.383184 -8.598298 5.425054 8.522584 -12.329087 0.000000 0.000000 0.000000 -0.277052 0.519778 -0.124243 0.348240 -6.357476 -0.847959 -0.294551 1.807757 -2.723528 44.998232 -42.137155 -31.684387 4.477412 -86.277215 3.761022 0.000000 0.000000 0.000000 -0.127233 0.830685 -0.510819 0.429159 0.680644 2.805583 7.543259 7.774330 -0.981046 -4.736009 1.585783 80.690837 -179.290417 54.641390 -179.756195 0.000000 0.000000 0.000000 
0.092083 107.917267 3.918926 0.000000 0.000000 0.000000 -87.510146 -6.630427 -0.974586 1.469682 22.209806 13.641680 -2.761012 0.615854 3.576699 16.380986 27.783130 -20.712325 -3.366479 -0.230702 0.662132 0.000000 0.000000 0.000000 -89.792938 -3.515817 0.717763 -0.610956 -23.725413 -18.204841 0.401483 -2.134743 -4.158936 27.260895 -31.220754 30.088950 -11.086771 0.649937 -1.812199 0.000000 0.000000 0.000000 -87.331372 -7.033408 -2.828387 0.957144 -0.384932 0.005040 -1.156760 0.416750 -0.245420 0.732791 0.753847 -0.264476 0.000000 0.000000 0.000000 -1.314788 0.518148 -0.277597 -5.642207 4.390495 -8.535149 6.434034 8.647498 -12.971760 0.000000 0.000000 0.000000 -0.268575 0.509548 -0.124905 0.338518 -6.325171 -0.934122 -0.280271 1.811969 -2.632681 44.926840 -42.134556 -31.739404 4.081862 -86.210436 3.384302 0.000000 0.000000 0.000000 -0.120485 0.830901 -0.507459 0.437339 0.616184 2.851612 7.530094 7.810005 -0.998716 -4.754149 1.737748 80.599319 -179.257277 54.621713 -179.759938 0.000000 0.000000 0.000000 
0.103523 107.915230 3.922310 0.000000 0.000000 0.000000 -87.523437 -6.645571 -0.969289 1.459436 22.211352 13.628435 -2.750117 0.554576 3.580954 16.356111 27.752920 -20.719309 -3.351675 -0.235229 0.648113 0.000000 0.000000 0.000000 -89.787140 -3.499511 0.750027 -0.647377 -23.785862 -18.218432 0.414819 -2.099522 -4.177800 27.227957 -31.228485 30.060861 -11.192358 0.651393 -1.801063 0.000000 0.000000 0.000000 -87.350285 -7.070621 -2.857715 0.956034 -0.402864 0.026762 -1.159978 0.417412 -0.240408 0.738165 0.775930 -0.260476 0.000000 0.000000 0.000000 -1.328698 0.520331 -0.268938 -5.830036 4.402921 -8.491226 7.497301 8.773947 -13.676811 0.000000 0.000000 0.000000 -0.260342 0.501609 -0.123955 0.330214 -6.277449 -1.038527 -0.275957 1.804682 -2.550174 44.859733 -42.152075 -31.757019 3.736599 -86.145016 3.057570 0.000000 0.000000 0.000000 -0.112635 0.830240 -0.507216 0.438386 0.532538 2.878321 7.532405 7.852931 -1.024617 -4.766004 1.865989 80.541625 -179.218276 54.592152 -179.776835 0.000000 0.000000 0.000000 
0.111082 107.913895 3.928867 0.000000 0.000000 0.000000 -87.537719 -6.659519 -0.966112 1.445355 22.233302 13.618345 -2.737517 0.495818 3.588532 16.322204 27.726612 -20.724534 -3.337599 -0.238788 0.632319 0.000000 0.000000 0.000000 -89.786040 -3.483934 0.778307 -0.687241 -23.856492 -18.224014 0.430566 -2.066390 -4.193437 27.196930 -31.244714 30.024460 -11.289837 0.653242 -1.788104 0.000000 0.000000 0.000000 -87.372012 -7.109602 -2.881556 0.955392 -0.418452 0.038541 -1.160038 0.418765 -0.236526 0.732044 0.802402 -0.253133 0.000000 0.000000 0.000000 -1.343709 0.522911 -0.261080 -6.035052 4.424066 -8.469635 8.505625 8.899197 -14.378841 0.000000 0.000000 0.000000 -0.255119 0.497786 -0.120650 0.324038 -6.207630 -1.146808 -0.278526 1.784345 -2.480223 44.818837 -42.188009 -31.723647 3.451949 -86.093496 2.787806 0.000000 0.000000 0.000000 -0.102027 0.830336 -0.508712 0.429752 0.435838 2.883396 7.547380 7.898315 -1.040831 -4.775901 1.960781 80.524146 -179.185081 54.590475 -179.800536 0.000000 0.000000 0.000000 
0.116479 107.913742 3.937172 0.000000 0.000000 0.000000 -87.549406 -6.669810 -0.964425 1.426329 22.275463 13.611517 -2.725560 0.443621 3.598039 16.282286 27.707067 -20.727285 -3.326024 -0.241076 0.616622 0.000000 0.000000 0.000000 -89.785815 -3.471101 0.801411 -0.729508 -23.930944 -18.222822 0.449157 -2.036120 -4.203472 27.170510 -31.268138 29.984937 -11.378184 0.655005 -1.773972 0.000000 0.000000 0.000000 -87.391212 -7.145448 -2.896961 0.956318 -0.429785 0.040316 -1.156788 0.419682 -0.233929 0.721901 0.838433 -0.247744 0.000000 0.000000 0.000000 -1.359532 0.525182 -0.254304 -6.253502 4.441861 -8.460400 9.374034 9.006477 -15.009537 0.000000 0.000000 0.000000 -0.256595 0.498606 -0.114765 0.321731 -6.124740 -1.240883 -0.286995 1.750987 -2.421615 44.811232 -42.233785 -31.643792 3.223863 -86.059113 2.571633 0.000000 0.000000 0.000000 -0.092296 0.830927 -0.511818 0.412322 0.329362 2.865491 7.572574 7.943199 -1.027850 -4.788463 2.021894 80.540395 -179.161845 54.630609 -179.828540 0.000000 0.000000 0.000000 
0.119915 107.913208 3.947174 0.000000 0.000000 0.000000 -87.557752 -6.675347 -0.962135 1.401613 22.331329 13.607487 -2.712514 0.398257 3.607815 16.243723 27.694648 -20.731545 -3.318677 -0.242251 0.602631 0.000000 0.000000 0.000000 -89.782092 -3.458751 0.822552 -0.767242 -24.001408 -18.215233 0.466486 -2.007981 -4.209253 27.148218 -31.294772 29.947040 -11.459665 0.656801 -1.760366 0.000000 0.000000 0.000000 -87.404981 -7.170030 -2.900456 0.961314 -0.437643 0.034225 -1.151818 0.419263 -0.233355 0.716525 0.893999 -0.241351 0.000000 0.000000 0.000000 -1.373453 0.526533 -0.250572 -6.479669 4.441856 -8.446459 10.029656 9.076597 -15.517498 0.000000 0.000000 0.000000 -0.264567 0.502039 -0.107173 0.325071 -6.037677 -1.315809 -0.299558 1.702354 -2.377532 44.834984 -42.276269 -31.541223 3.022656 -86.033746 2.382013 0.000000 0.000000 0.000000 -0.085983 0.830786 -0.517211 0.392328 0.216818 2.831495 7.597991 7.985837 -1.000438 -4.809676 2.059242 80.586328 -179.145261 54.696302 -179.860314 0.000000 0.000000 0.000000 
0.119574 107.911682 3.959087 0.000000 0.000000 0.000000 -87.562451 -6.675897 -0.958236 1.370051 22.393771 13.606574 -2.695450 0.359534 3.617050 16.210848 27.689003 -20.740011 -3.314870 -0.242607 0.591860 0.000000 0.000000 0.000000 -89.773609 -3.446222 0.842122 -0.794931 -24.059017 -18.198593 0.477439 -1.982514 -4.211355 27.129756 -31.321523 29.913787 -11.534023 0.658435 -1.748262 0.000000 0.000000 0.000000 -87.412857 -7.179635 -2.892827 0.969346 -0.442253 0.023518 -1.147344 0.416101 -0.233917 0.720321 0.944326 -0.240147 0.000000 0.000000 0.000000 -1.382691 0.525512 -0.250024 -6.693900 4.420531 -8.419357 10.448462 9.107076 -15.875829 0.000000 0.000000 0.000000 -0.278864 0.506244 -0.098571 0.333718 -5.957434 -1.364760 -0.301591 1.642171 -2.374431 44.871020 -42.309245 -31.445645 2.874791 -86.012381 2.245353 0.000000 0.000000 0.000000 -0.086750 0.827895 -0.525019 0.372233 0.105635 2.789286 7.619962 8.029127 -0.962799 -4.841218 2.083692 80.654002 -179.130590 54.767076 -179.895066 0.000000 0.000000 0.000000 
